<mxfile host="app.diagrams.net" modified="2023-02-21T02:26:59.909Z" agent="5.0 (Windows NT 10.0; Win64; x64) AppleWebKit/537.36 (KHTML, like Gecko) Chrome/110.0.0.0 Safari/537.36" etag="YqPnD5rOhWGvhIQoseGu" version="20.8.21" type="github">
  <diagram name="Page-1" id="e3a06f82-3646-2815-327d-82caf3d4e204">
    <mxGraphModel dx="1050" dy="515" grid="1" gridSize="10" guides="1" tooltips="1" connect="1" arrows="1" fold="1" page="1" pageScale="1.5" pageWidth="1169" pageHeight="826" background="none" math="0" shadow="0">
      <root>
        <mxCell id="0" style=";html=1;" />
        <mxCell id="1" style=";html=1;" parent="0" />
        <mxCell id="6a7d8f32e03d9370-61" value="Aries Cloud Agent" style="whiteSpace=wrap;html=1;fillColor=#f8cecc;fontSize=14;strokeColor=none;verticalAlign=top;" parent="1" vertex="1">
          <mxGeometry x="1117" y="265.72" width="213" height="224.28" as="geometry" />
        </mxCell>
        <mxCell id="6a7d8f32e03d9370-60" value="Blockchain" style="whiteSpace=wrap;html=1;fillColor=#d5e8d4;fontSize=14;strokeColor=none;verticalAlign=top;" parent="1" vertex="1">
          <mxGeometry x="1119.29" y="540" width="208.43" height="223" as="geometry" />
        </mxCell>
        <mxCell id="6a7d8f32e03d9370-59" value="Credential storeged in wallet" style="whiteSpace=wrap;html=1;fillColor=#EDEDED;fontSize=14;strokeColor=none;verticalAlign=top;" parent="1" vertex="1">
          <mxGeometry x="653" y="90" width="387" height="720" as="geometry" />
        </mxCell>
        <mxCell id="6a7d8f32e03d9370-58" value="Raspeberry PI" style="whiteSpace=wrap;html=1;fillColor=#dae8fc;fontSize=14;strokeColor=none;verticalAlign=top;" parent="1" vertex="1">
          <mxGeometry x="30" y="409" width="108" height="270" as="geometry" />
        </mxCell>
        <mxCell id="6a7d8f32e03d9370-57" value="Enviroment IoT" style="whiteSpace=wrap;html=1;fillColor=#FFD470;gradientColor=none;fontSize=14;strokeColor=none;verticalAlign=top;" parent="1" vertex="1">
          <mxGeometry x="179" y="98" width="308" height="612" as="geometry" />
        </mxCell>
        <mxCell id="6a7d8f32e03d9370-35" style="edgeStyle=none;rounded=0;html=1;startSize=10;endSize=10;jettySize=auto;orthogonalLoop=1;fontSize=14;endArrow=none;endFill=0;strokeWidth=2;" parent="1" source="AGsdD-O0MfIiKE4bmK7N-5" target="4pu8WYODDaZBOu8qvZJw-1" edge="1">
          <mxGeometry relative="1" as="geometry">
            <mxPoint x="468.5" y="692.5241020793951" as="sourcePoint" />
          </mxGeometry>
        </mxCell>
        <mxCell id="6a7d8f32e03d9370-34" style="edgeStyle=none;rounded=0;html=1;startSize=10;endSize=10;jettySize=auto;orthogonalLoop=1;fontSize=14;endArrow=none;endFill=0;strokeWidth=2;" parent="1" source="AGsdD-O0MfIiKE4bmK7N-12" target="4pu8WYODDaZBOu8qvZJw-1" edge="1">
          <mxGeometry relative="1" as="geometry">
            <mxPoint x="455" y="532.2429111531192" as="sourcePoint" />
            <mxPoint x="637" y="529.1465028355387" as="targetPoint" />
          </mxGeometry>
        </mxCell>
        <mxCell id="6a7d8f32e03d9370-32" style="edgeStyle=none;rounded=0;html=1;startSize=10;endSize=10;jettySize=auto;orthogonalLoop=1;fontSize=14;endArrow=none;endFill=0;strokeWidth=2;" parent="1" source="AGsdD-O0MfIiKE4bmK7N-16" edge="1">
          <mxGeometry relative="1" as="geometry">
            <mxPoint x="282.75" y="205.82517857142864" as="sourcePoint" />
            <mxPoint x="371" y="206" as="targetPoint" />
          </mxGeometry>
        </mxCell>
        <mxCell id="6a7d8f32e03d9370-42" style="edgeStyle=none;rounded=0;html=1;startSize=10;endSize=10;jettySize=auto;orthogonalLoop=1;fontSize=14;endArrow=none;endFill=0;strokeWidth=2;" parent="1" source="AGsdD-O0MfIiKE4bmK7N-40" target="AGsdD-O0MfIiKE4bmK7N-20" edge="1">
          <mxGeometry relative="1" as="geometry">
            <mxPoint x="723" y="384.1255144032921" as="sourcePoint" />
            <mxPoint x="769" y="384.8827160493827" as="targetPoint" />
          </mxGeometry>
        </mxCell>
        <mxCell id="6a7d8f32e03d9370-43" style="edgeStyle=none;rounded=0;html=1;startSize=10;endSize=10;jettySize=auto;orthogonalLoop=1;fontSize=14;endArrow=none;endFill=0;strokeWidth=2;exitX=1;exitY=0.622;exitDx=0;exitDy=0;exitPerimeter=0;" parent="1" source="AGsdD-O0MfIiKE4bmK7N-32" target="AGsdD-O0MfIiKE4bmK7N-21" edge="1">
          <mxGeometry relative="1" as="geometry">
            <mxPoint x="724" y="220.1255144032922" as="sourcePoint" />
            <mxPoint x="770" y="220.88271604938268" as="targetPoint" />
          </mxGeometry>
        </mxCell>
        <mxCell id="6a7d8f32e03d9370-62" value="SSI for IoT" style="text;strokeColor=none;fillColor=none;html=1;fontSize=24;fontStyle=1;verticalAlign=middle;align=center;" parent="1" vertex="1">
          <mxGeometry x="499" y="30" width="861" height="40" as="geometry" />
        </mxCell>
        <mxCell id="AGsdD-O0MfIiKE4bmK7N-5" value="" style="outlineConnect=0;dashed=0;verticalLabelPosition=bottom;verticalAlign=top;align=center;html=1;shape=mxgraph.aws3.generic;fillColor=#5294CF;gradientColor=none;fontFamily=Helvetica;fontSize=14;fontColor=default;" parent="1" vertex="1">
          <mxGeometry x="299.25" y="569" width="79.5" height="79.5" as="geometry" />
        </mxCell>
        <mxCell id="AGsdD-O0MfIiKE4bmK7N-12" value="" style="shape=image;html=1;verticalAlign=top;verticalLabelPosition=bottom;labelBackgroundColor=#ffffff;imageAspect=0;aspect=fixed;image=https://cdn2.iconfinder.com/data/icons/business-and-education-1/512/131_CCTV_Camera_Security_Surveillance_Technology_technology_smart-128.png;fontFamily=Helvetica;fontSize=14;fontColor=default;fillColor=#66B2FF;gradientColor=#0066CC;" parent="1" vertex="1">
          <mxGeometry x="290" y="409" width="98" height="98" as="geometry" />
        </mxCell>
        <mxCell id="AGsdD-O0MfIiKE4bmK7N-14" value="" style="shape=image;html=1;verticalAlign=top;verticalLabelPosition=bottom;labelBackgroundColor=#ffffff;imageAspect=0;aspect=fixed;image=https://cdn1.iconfinder.com/data/icons/ios-11-glyphs/30/iPhone-128.png;fontFamily=Helvetica;fontSize=14;fontColor=default;fillColor=#66B2FF;gradientColor=#0066CC;clipPath=inset(0% 21.09% 0% 21.09%);" parent="1" vertex="1">
          <mxGeometry x="231.63" y="279.28" width="50.875" height="88" as="geometry" />
        </mxCell>
        <mxCell id="AGsdD-O0MfIiKE4bmK7N-16" value="" style="verticalLabelPosition=bottom;sketch=0;aspect=fixed;html=1;verticalAlign=top;strokeColor=none;align=center;outlineConnect=0;shape=mxgraph.citrix.desktop;fontFamily=Helvetica;fontSize=14;fontColor=default;fillColor=#66B2FF;gradientColor=#0066CC;" parent="1" vertex="1">
          <mxGeometry x="211" y="164.63" width="71.5" height="78.73" as="geometry" />
        </mxCell>
        <mxCell id="AGsdD-O0MfIiKE4bmK7N-20" value="" style="aspect=fixed;html=1;points=[];align=center;image;fontSize=12;image=img/lib/azure2/identity/Verifiable_Credentials.svg;fontFamily=Helvetica;fontColor=default;fillColor=#66B2FF;gradientColor=#0066CC;" parent="1" vertex="1">
          <mxGeometry x="690" y="291" width="68" height="68" as="geometry" />
        </mxCell>
        <mxCell id="AGsdD-O0MfIiKE4bmK7N-21" value="" style="aspect=fixed;html=1;points=[];align=center;image;fontSize=12;image=img/lib/azure2/identity/Verifiable_Credentials.svg;fontFamily=Helvetica;fontColor=default;fillColor=#66B2FF;gradientColor=#0066CC;" parent="1" vertex="1">
          <mxGeometry x="691" y="181" width="68" height="68" as="geometry" />
        </mxCell>
        <mxCell id="AGsdD-O0MfIiKE4bmK7N-23" value="" style="shape=image;html=1;verticalAlign=top;verticalLabelPosition=bottom;labelBackgroundColor=#ffffff;imageAspect=0;aspect=fixed;image=https://cdn1.iconfinder.com/data/icons/fruit-136/64/Fruit_iconfree_Filled_Outline_raspberry-healthy-organic-food-fruit_icon-128.png;fontFamily=Helvetica;fontSize=14;fontColor=default;fillColor=#66B2FF;gradientColor=#0066CC;" parent="1" vertex="1">
          <mxGeometry x="37" y="446" width="94" height="94" as="geometry" />
        </mxCell>
        <mxCell id="AGsdD-O0MfIiKE4bmK7N-24" value="" style="aspect=fixed;html=1;points=[];align=center;image;fontSize=12;image=img/lib/azure2/identity/Verifiable_Credentials.svg;fontFamily=Helvetica;fontColor=default;fillColor=#66B2FF;gradientColor=#0066CC;" parent="1" vertex="1">
          <mxGeometry x="680" y="552" width="68" height="68" as="geometry" />
        </mxCell>
        <mxCell id="AGsdD-O0MfIiKE4bmK7N-25" style="edgeStyle=none;rounded=0;html=1;startSize=10;endSize=10;jettySize=auto;orthogonalLoop=1;fontSize=14;endArrow=none;endFill=0;strokeWidth=2;exitX=1;exitY=0.5;exitDx=0;exitDy=0;" parent="1" source="AGsdD-O0MfIiKE4bmK7N-36" target="AGsdD-O0MfIiKE4bmK7N-24" edge="1">
          <mxGeometry relative="1" as="geometry">
            <mxPoint x="708" y="602.1255144032921" as="sourcePoint" />
            <mxPoint x="754" y="603" as="targetPoint" />
          </mxGeometry>
        </mxCell>
        <mxCell id="AGsdD-O0MfIiKE4bmK7N-28" value="" style="sketch=0;aspect=fixed;html=1;points=[];align=center;image;fontSize=12;image=img/lib/mscae/Virtual_Datacenter.svg;fontFamily=Helvetica;fontColor=default;fillColor=#66B2FF;gradientColor=#0066CC;" parent="1" vertex="1">
          <mxGeometry x="1178.75" y="310" width="75.5" height="75.5" as="geometry" />
        </mxCell>
        <mxCell id="AGsdD-O0MfIiKE4bmK7N-32" value="" style="shape=image;html=1;verticalAlign=top;verticalLabelPosition=bottom;labelBackgroundColor=#ffffff;imageAspect=0;aspect=fixed;image=https://cdn4.iconfinder.com/data/icons/48-bubbles/48/07.Wallet-128.png;fontFamily=Helvetica;fontSize=14;fontColor=default;fillColor=#66B2FF;gradientColor=#0066CC;" parent="1" vertex="1">
          <mxGeometry x="368" y="159" width="90" height="90" as="geometry" />
        </mxCell>
        <mxCell id="AGsdD-O0MfIiKE4bmK7N-33" value="" style="aspect=fixed;html=1;points=[];align=center;image;fontSize=12;image=img/lib/azure2/iot/Time_Series_Data_Sets.svg;fontFamily=Helvetica;fontColor=default;fillColor=#66B2FF;gradientColor=#0066CC;" parent="1" vertex="1">
          <mxGeometry x="368" y="214.56" width="31.2" height="41.44" as="geometry" />
        </mxCell>
        <mxCell id="AGsdD-O0MfIiKE4bmK7N-36" value="" style="shape=image;html=1;verticalAlign=top;verticalLabelPosition=bottom;labelBackgroundColor=#ffffff;imageAspect=0;aspect=fixed;image=https://cdn4.iconfinder.com/data/icons/48-bubbles/48/07.Wallet-128.png;fontFamily=Helvetica;fontSize=14;fontColor=default;fillColor=#66B2FF;gradientColor=#0066CC;" parent="1" vertex="1">
          <mxGeometry x="523.6" y="554.5" width="90" height="90" as="geometry" />
        </mxCell>
        <mxCell id="AGsdD-O0MfIiKE4bmK7N-37" value="" style="aspect=fixed;html=1;points=[];align=center;image;fontSize=12;image=img/lib/azure2/iot/Time_Series_Data_Sets.svg;fontFamily=Helvetica;fontColor=default;fillColor=#66B2FF;gradientColor=#0066CC;" parent="1" vertex="1">
          <mxGeometry x="530" y="599" width="31.2" height="41.44" as="geometry" />
        </mxCell>
        <mxCell id="AGsdD-O0MfIiKE4bmK7N-40" value="" style="shape=image;html=1;verticalAlign=top;verticalLabelPosition=bottom;labelBackgroundColor=#ffffff;imageAspect=0;aspect=fixed;image=https://cdn4.iconfinder.com/data/icons/48-bubbles/48/07.Wallet-128.png;fontFamily=Helvetica;fontSize=14;fontColor=default;fillColor=#66B2FF;gradientColor=#0066CC;" parent="1" vertex="1">
          <mxGeometry x="368" y="279.28" width="90" height="90" as="geometry" />
        </mxCell>
        <mxCell id="AGsdD-O0MfIiKE4bmK7N-41" value="" style="aspect=fixed;html=1;points=[];align=center;image;fontSize=12;image=img/lib/azure2/iot/Time_Series_Data_Sets.svg;fontFamily=Helvetica;fontColor=default;fillColor=#66B2FF;gradientColor=#0066CC;" parent="1" vertex="1">
          <mxGeometry x="361" y="337.56" width="31.2" height="41.44" as="geometry" />
        </mxCell>
        <mxCell id="AGsdD-O0MfIiKE4bmK7N-43" style="edgeStyle=none;rounded=0;html=1;startSize=10;endSize=10;jettySize=auto;orthogonalLoop=1;fontSize=14;endArrow=none;endFill=0;strokeWidth=2;" parent="1" source="AGsdD-O0MfIiKE4bmK7N-14" target="AGsdD-O0MfIiKE4bmK7N-40" edge="1">
          <mxGeometry relative="1" as="geometry">
            <mxPoint x="280" y="332" as="sourcePoint" />
            <mxPoint x="368" y="333" as="targetPoint" />
          </mxGeometry>
        </mxCell>
        <mxCell id="AGsdD-O0MfIiKE4bmK7N-44" value="" style="endArrow=none;html=1;rounded=0;fontFamily=Helvetica;fontSize=14;fontColor=default;exitX=1;exitY=1;exitDx=0;exitDy=0;" parent="1" source="4pu8WYODDaZBOu8qvZJw-1" target="AGsdD-O0MfIiKE4bmK7N-36" edge="1">
          <mxGeometry width="50" height="50" relative="1" as="geometry">
            <mxPoint x="800" y="500" as="sourcePoint" />
            <mxPoint x="850" y="450" as="targetPoint" />
          </mxGeometry>
        </mxCell>
        <mxCell id="AGsdD-O0MfIiKE4bmK7N-45" value="" style="aspect=fixed;html=1;points=[];align=center;image;fontSize=12;image=img/lib/azure2/identity/Verifiable_Credentials.svg;fontFamily=Helvetica;fontColor=default;fillColor=#66B2FF;gradientColor=#0066CC;" parent="1" vertex="1">
          <mxGeometry x="702" y="660" width="68" height="68" as="geometry" />
        </mxCell>
        <mxCell id="AGsdD-O0MfIiKE4bmK7N-46" style="edgeStyle=none;rounded=0;html=1;startSize=10;endSize=10;jettySize=auto;orthogonalLoop=1;fontSize=14;endArrow=none;endFill=0;strokeWidth=2;" parent="1" source="AGsdD-O0MfIiKE4bmK7N-36" target="AGsdD-O0MfIiKE4bmK7N-45" edge="1">
          <mxGeometry relative="1" as="geometry">
            <mxPoint x="622" y="675" as="sourcePoint" />
            <mxPoint x="701" y="667" as="targetPoint" />
          </mxGeometry>
        </mxCell>
        <mxCell id="AGsdD-O0MfIiKE4bmK7N-47" value="&lt;h4&gt;&lt;span style=&quot;background-color: initial;&quot;&gt;&lt;font style=&quot;font-size: 14px;&quot;&gt;Verificable Credential&lt;/font&gt;&lt;/span&gt;&lt;/h4&gt;&lt;pre&gt;&lt;font style=&quot;font-size: 12px;&quot;&gt;Emissor: did:iot:abc123 &lt;/font&gt;&lt;/pre&gt;&lt;pre&gt;&lt;b&gt;&lt;font style=&quot;font-size: 12px;&quot;&gt;Creds: [Id: did:iot:abc123] &lt;/font&gt;&lt;/b&gt;&lt;/pre&gt;&lt;pre&gt;&lt;font style=&quot;font-size: 12px;&quot;&gt;&lt;span style=&quot;white-space: pre;&quot;&gt; &lt;/span&gt;type: camera,&lt;/font&gt;&lt;/pre&gt;&lt;pre&gt;&lt;font style=&quot;font-size: 12px;&quot;&gt;&lt;span style=&quot;background-color: initial; font-family: Helvetica; white-space: normal;&quot;&gt;&lt;span style=&quot;white-space: pre;&quot;&gt; &lt;/span&gt;&lt;span style=&quot;white-space: pre;&quot;&gt; &lt;/span&gt;Owner: did:Bob:abc123&lt;/span&gt;&lt;br&gt;&lt;/font&gt;&lt;/pre&gt;&lt;div&gt;&lt;br&gt;&lt;/div&gt;" style="text;html=1;strokeColor=#FFFF33;fillColor=#FFFF66;spacing=5;spacingTop=-20;whiteSpace=wrap;overflow=hidden;rounded=0;fontSize=14;fontFamily=Helvetica;fontColor=default;" parent="1" vertex="1">
          <mxGeometry x="802.25" y="470" width="187.75" height="150" as="geometry" />
        </mxCell>
        <mxCell id="AGsdD-O0MfIiKE4bmK7N-50" value="&lt;h4&gt;&lt;span style=&quot;background-color: initial;&quot;&gt;&lt;font style=&quot;font-size: 14px;&quot;&gt;Verificable Credential&lt;/font&gt;&lt;/span&gt;&lt;/h4&gt;&lt;pre&gt;&lt;font style=&quot;font-size: 12px;&quot;&gt;Emissor: did:iot:abc123&lt;/font&gt;&lt;/pre&gt;&lt;pre&gt;&lt;b&gt;&lt;font style=&quot;font-size: 12px;&quot;&gt;Creds: [Id: did:iot:abc456] &lt;/font&gt;&lt;/b&gt;&lt;/pre&gt;&lt;pre&gt;&lt;font style=&quot;font-size: 12px;&quot;&gt;&lt;span style=&quot;white-space: pre;&quot;&gt; &lt;/span&gt;type: sensor,&lt;/font&gt;&lt;/pre&gt;&lt;pre&gt;&lt;font style=&quot;font-size: 12px;&quot;&gt;&lt;span style=&quot;background-color: initial; font-family: Helvetica; white-space: normal;&quot;&gt;&lt;span style=&quot;white-space: pre;&quot;&gt; &lt;/span&gt;&lt;span style=&quot;white-space: pre;&quot;&gt; &lt;/span&gt;Owner: did:Bob:abc123&lt;/span&gt;&lt;br&gt;&lt;/font&gt;&lt;/pre&gt;&lt;div&gt;&lt;br&gt;&lt;/div&gt;" style="text;html=1;strokeColor=#FFFF33;fillColor=#FFFF66;spacing=5;spacingTop=-20;whiteSpace=wrap;overflow=hidden;rounded=0;fontSize=14;fontFamily=Helvetica;fontColor=default;" parent="1" vertex="1">
          <mxGeometry x="805.4" y="632.78" width="184.6" height="150" as="geometry" />
        </mxCell>
        <mxCell id="AGsdD-O0MfIiKE4bmK7N-52" value="" style="endArrow=none;dashed=1;html=1;dashPattern=1 3;strokeWidth=2;rounded=0;fontFamily=Helvetica;fontSize=14;fontColor=default;" parent="1" source="AGsdD-O0MfIiKE4bmK7N-47" target="AGsdD-O0MfIiKE4bmK7N-24" edge="1">
          <mxGeometry width="50" height="50" relative="1" as="geometry">
            <mxPoint x="800" y="730" as="sourcePoint" />
            <mxPoint x="850" y="680" as="targetPoint" />
          </mxGeometry>
        </mxCell>
        <mxCell id="AGsdD-O0MfIiKE4bmK7N-53" value="" style="endArrow=none;dashed=1;html=1;dashPattern=1 3;strokeWidth=2;rounded=0;fontFamily=Helvetica;fontSize=14;fontColor=default;" parent="1" source="AGsdD-O0MfIiKE4bmK7N-50" target="AGsdD-O0MfIiKE4bmK7N-45" edge="1">
          <mxGeometry width="50" height="50" relative="1" as="geometry">
            <mxPoint x="800" y="730" as="sourcePoint" />
            <mxPoint x="850" y="680" as="targetPoint" />
          </mxGeometry>
        </mxCell>
        <mxCell id="AGsdD-O0MfIiKE4bmK7N-57" value="&lt;h4&gt;&lt;span style=&quot;background-color: initial;&quot;&gt;&lt;font style=&quot;font-size: 14px;&quot;&gt;Verificable Credential&lt;/font&gt;&lt;/span&gt;&lt;/h4&gt;&lt;pre&gt;&lt;font style=&quot;font-size: 12px;&quot;&gt;Emissor: did:iot:abc123 &lt;/font&gt;&lt;/pre&gt;&lt;pre&gt;&lt;font style=&quot;font-size: 12px;&quot;&gt;&lt;b&gt;Creds: [Id: did:iot:abc789] &lt;/b&gt;&lt;/font&gt;&lt;/pre&gt;&lt;pre&gt;&lt;font style=&quot;font-size: 12px;&quot;&gt;&lt;span style=&quot;white-space: pre;&quot;&gt; &lt;/span&gt;type: smartphone,&lt;/font&gt;&lt;/pre&gt;&lt;pre&gt;&lt;font style=&quot;font-size: 12px;&quot;&gt;&lt;span style=&quot;background-color: initial; font-family: Helvetica; white-space: normal;&quot;&gt;&lt;span style=&quot;white-space: pre;&quot;&gt; &lt;/span&gt;&lt;span style=&quot;white-space: pre;&quot;&gt; &lt;/span&gt;Owner: did:Bob:abc123&lt;/span&gt;&lt;br&gt;&lt;/font&gt;&lt;/pre&gt;&lt;div&gt;&lt;br&gt;&lt;/div&gt;" style="text;html=1;strokeColor=#FFFF33;fillColor=#FFFF66;spacing=5;spacingTop=-20;whiteSpace=wrap;overflow=hidden;rounded=0;fontSize=14;fontFamily=Helvetica;fontColor=default;" parent="1" vertex="1">
          <mxGeometry x="803.6" y="310" width="186.4" height="150" as="geometry" />
        </mxCell>
        <mxCell id="AGsdD-O0MfIiKE4bmK7N-58" value="&lt;h4&gt;&lt;span style=&quot;background-color: initial;&quot;&gt;&lt;font style=&quot;font-size: 14px;&quot;&gt;Verificable Credential&lt;/font&gt;&lt;/span&gt;&lt;/h4&gt;&lt;pre&gt;&lt;font style=&quot;font-size: 12px;&quot;&gt;Emissor: did:iot:abc123 &lt;/font&gt;&lt;/pre&gt;&lt;pre&gt;&lt;font style=&quot;font-size: 12px;&quot;&gt;&lt;b&gt;Creds: [Id: did:iot:xyz:123] &lt;/b&gt;&lt;/font&gt;&lt;/pre&gt;&lt;pre&gt;&lt;font style=&quot;font-size: 12px;&quot;&gt;&lt;span style=&quot;white-space: pre;&quot;&gt; &lt;/span&gt;type: computador,&lt;/font&gt;&lt;/pre&gt;&lt;pre&gt;&lt;font style=&quot;font-size: 12px;&quot;&gt;&lt;span style=&quot;background-color: initial; font-family: Helvetica; white-space: normal;&quot;&gt;&lt;span style=&quot;white-space: pre;&quot;&gt; &lt;/span&gt;&lt;span style=&quot;white-space: pre;&quot;&gt; &lt;/span&gt;Owner: did:Bob:abc123&lt;/span&gt;&lt;br&gt;&lt;/font&gt;&lt;/pre&gt;&lt;div&gt;&lt;br&gt;&lt;/div&gt;" style="text;html=1;strokeColor=#FFFF33;fillColor=#FFFF66;spacing=5;spacingTop=-20;whiteSpace=wrap;overflow=hidden;rounded=0;fontSize=14;fontFamily=Helvetica;fontColor=default;" parent="1" vertex="1">
          <mxGeometry x="802.25" y="150" width="190" height="148.72" as="geometry" />
        </mxCell>
        <mxCell id="AGsdD-O0MfIiKE4bmK7N-59" value="" style="endArrow=none;dashed=1;html=1;dashPattern=1 3;strokeWidth=2;rounded=0;fontFamily=Helvetica;fontSize=14;fontColor=default;" parent="1" source="AGsdD-O0MfIiKE4bmK7N-57" target="AGsdD-O0MfIiKE4bmK7N-20" edge="1">
          <mxGeometry width="50" height="50" relative="1" as="geometry">
            <mxPoint x="430" y="966" as="sourcePoint" />
            <mxPoint x="710" y="730" as="targetPoint" />
          </mxGeometry>
        </mxCell>
        <mxCell id="AGsdD-O0MfIiKE4bmK7N-60" value="" style="endArrow=none;dashed=1;html=1;dashPattern=1 3;strokeWidth=2;rounded=0;fontFamily=Helvetica;fontSize=14;fontColor=default;" parent="1" source="AGsdD-O0MfIiKE4bmK7N-58" target="AGsdD-O0MfIiKE4bmK7N-21" edge="1">
          <mxGeometry width="50" height="50" relative="1" as="geometry">
            <mxPoint x="362" y="1170" as="sourcePoint" />
            <mxPoint x="719" y="350" as="targetPoint" />
          </mxGeometry>
        </mxCell>
        <mxCell id="AGsdD-O0MfIiKE4bmK7N-61" value="" style="shape=image;verticalLabelPosition=bottom;labelBackgroundColor=default;verticalAlign=top;aspect=fixed;imageAspect=0;image=https://raw.githubusercontent.com/hyperledger/aries/main/collateral/Hyperledger_Aries_Logo_Color.png;" parent="1" vertex="1">
          <mxGeometry x="1143.13" y="409" width="176.87" height="50" as="geometry" />
        </mxCell>
        <mxCell id="AGsdD-O0MfIiKE4bmK7N-64" value="" style="endArrow=none;html=1;rounded=0;fontFamily=Verdana;fontSize=12;fontColor=default;exitX=1;exitY=0.5;exitDx=0;exitDy=0;entryX=0;entryY=0.212;entryDx=0;entryDy=0;entryPerimeter=0;" parent="1" source="AGsdD-O0MfIiKE4bmK7N-58" target="6a7d8f32e03d9370-61" edge="1">
          <mxGeometry width="50" height="50" relative="1" as="geometry">
            <mxPoint x="1280" y="480" as="sourcePoint" />
            <mxPoint x="1330" y="430" as="targetPoint" />
          </mxGeometry>
        </mxCell>
        <mxCell id="AGsdD-O0MfIiKE4bmK7N-65" value="" style="endArrow=none;html=1;rounded=0;fontFamily=Verdana;fontSize=12;fontColor=default;" parent="1" source="AGsdD-O0MfIiKE4bmK7N-57" target="6a7d8f32e03d9370-61" edge="1">
          <mxGeometry width="50" height="50" relative="1" as="geometry">
            <mxPoint x="1002" y="234" as="sourcePoint" />
            <mxPoint x="1225" y="395" as="targetPoint" />
          </mxGeometry>
        </mxCell>
        <mxCell id="AGsdD-O0MfIiKE4bmK7N-66" value="" style="endArrow=none;html=1;rounded=0;fontFamily=Verdana;fontSize=12;fontColor=default;" parent="1" source="AGsdD-O0MfIiKE4bmK7N-47" target="6a7d8f32e03d9370-61" edge="1">
          <mxGeometry width="50" height="50" relative="1" as="geometry">
            <mxPoint x="1000" y="409" as="sourcePoint" />
            <mxPoint x="1225" y="443" as="targetPoint" />
          </mxGeometry>
        </mxCell>
        <mxCell id="AGsdD-O0MfIiKE4bmK7N-68" value="" style="endArrow=none;html=1;rounded=0;fontFamily=Verdana;fontSize=12;fontColor=default;" parent="1" source="AGsdD-O0MfIiKE4bmK7N-50" target="6a7d8f32e03d9370-61" edge="1">
          <mxGeometry width="50" height="50" relative="1" as="geometry">
            <mxPoint x="1000" y="534" as="sourcePoint" />
            <mxPoint x="1225" y="484" as="targetPoint" />
          </mxGeometry>
        </mxCell>
        <mxCell id="AGsdD-O0MfIiKE4bmK7N-69" value="" style="shape=image;verticalLabelPosition=bottom;labelBackgroundColor=default;verticalAlign=top;aspect=fixed;imageAspect=0;image=https://raw.githubusercontent.com/hyperledger/indy-node/master/collateral/logos/indy-logo.png;" parent="1" vertex="1">
          <mxGeometry x="1132.1999999999998" y="685.78" width="184.81" height="57.22" as="geometry" />
        </mxCell>
        <mxCell id="AGsdD-O0MfIiKE4bmK7N-71" value="" style="sketch=0;aspect=fixed;html=1;points=[];align=center;image;fontSize=12;image=img/lib/mscae/Docker.svg;fontFamily=Verdana;fontColor=default;fillColor=#66B2FF;gradientColor=#0066CC;" parent="1" vertex="1">
          <mxGeometry x="1270" y="291" width="50" height="41" as="geometry" />
        </mxCell>
        <mxCell id="AGsdD-O0MfIiKE4bmK7N-72" value="" style="sketch=0;aspect=fixed;html=1;points=[];align=center;image;fontSize=12;image=img/lib/mscae/Docker.svg;fontFamily=Verdana;fontColor=default;fillColor=#66B2FF;gradientColor=#0066CC;" parent="1" vertex="1">
          <mxGeometry x="1267.72" y="567" width="50" height="41" as="geometry" />
        </mxCell>
        <mxCell id="AGsdD-O0MfIiKE4bmK7N-73" value="" style="shape=image;verticalLabelPosition=bottom;labelBackgroundColor=default;verticalAlign=top;aspect=fixed;imageAspect=0;image=data:image/png,iVBORw0KGgoAAAANSUhEUgAAARgAAABcCAYAAAC1MKpCAAAAAXNSR0IArs4c6QAAAARnQU1BAACxjwv8YQUAAAAJcEhZcwAAEnQAABJ0Ad5mH3gAACsjSURBVHhe7Z0FeBRHG8ffeEhCQiB4cXcpGtylQHErRdpCKaVKqVCgLfK10BYKFFooUsGLW3F3C+4SJCQkRInnkvve/9xusnfcJRfgIIH5Pc8+tzu3t7c277w2M3Z6hiQSicQG2CufEolE8tSRAkYikdgMKWAkEonNkAJGIpHYDClgJBKJzZACRiKR2AwpYCQSic2QAkYikdgMKWAkEonNkAJGIpHYDClgJBKJzZACRiKR2AwpYCQSic2QAkYikdgMKWAkEonNkAJGIpHYDClgJBKJzZACRiKR2AwpYCQSic2QAkYikdgMKWAkEonNkAJGIpHYDClgJBKJzZACRiKR2AwpYCQSic2QAkYikdgMOXWsFTyIiqaH8Qnk5uJM+b1yKqWPT3RcAoVGx5CDvT0VyJWTHB0clG9eTBKSdHQ/8iERv2k+nu7iPj4pgRGRFJ+oIy+3HJTbw00plWQ1pICxwMkbd+jPPUdp37lrlJycTLhN9iwQ8FmzbHF6s1EtalGlrLJ3xoRERtOi/cdp3fHzFBwaTk5OTuJYCSxsKpQqQl3qVKE3+Jj2dnbKL7I3Or5n/+w9TksP+tGdgGBycnEylLOwyefjTZ1qV6YBTepkSjhsPX2J/tpzjE5dvUWOjg6UkpLCpXbkwsduXKkMDWxam6oWK2zYWZIlkALGDGOX/0cbj52j2IcxSsmjuHNLXK1kEfq2R1sqkieXUmqexfuO08Rl/5EP7xd8P1QpNSZvvtyUpEumCX1ey5TgyorsOHuFRi/ZKNYjwiLFpynOOVxIp9PR6F7tqU/DV5VS89wNjaCxfP8u3AmkyPAopfRRXNxcqXP96uKZSLIGUsBoiOfWdfDvS+n2g3CLgkCLk6szt57ONP/9vlSlaCGl1JhJa3bQvwdPUkyUZWGlBRVvZNdW1I+1mezI0gMnafLq7RQXHauUpA8EdXffGvRl55ZKiTEX7wbRoJmLWfjqWOBnfEwPLw8qUygf/fFub3Ln5yN5vjh8yyjrLz0fLFhJRy5ep2iNMKjD2kR7Nl8+7tScCuXzJncPd/K/Fyy+S2GNIzEhkXZdvkld61YlVzZ7tCzYdYT+3HXYSLiULl6IWtSsSP2a1aOm1cpRTj7e7fBI0iUmie+T+ZhHrt2isoXzU8n8eURZdmHnuas0ZvEGio+JU0qIcuR04/tXlfo1r0utalai3N6ehCsNi3govk9KSKKbrKE4ONhRjRKviDKVyNg46jd9IYU+iKAk5f6AprUq02t1KtMHHZqRT24vcmQhHxBsaBDwPMJiYulCYDB1eLWSKJM8P6QGowAzZtrGPRSlvPjg9w/6UZNKpZWtNC5wq/r+3BUUFPRAbOf2yUVNK5WhiWzeqNzgF77DuFmkZ4Gh0qdlPW6pW5Gzo7FTF07k79dsp00HTyklRN55vOjAhI/JLpv4ZPAa+X79i5FJ1N63On3FmomPp4dSksZCmI2LNihb/CLyPdk4dhiVyJcmVEct2UB7zl+jMBYwoEABH5r5Tneq+EoBsa0F+w2dsVDZMuw7uEU96ptNNcEXBSlgFGp9/qORprF14scZ+lbqfTUl1Sfg6OJEb7duSHlyuovtdcfO0nVuReOiDa05NKG/2JRKjwFsChw9e0WswyczpJVvtjGV4NCdvmE3a3/RYtua652/8zD9uHyzWMf9K14wL/X0rSm2IXTnbtlPKWy2AnsnRzo/Y7RYt8Qd1oRas5BTycnm0tFJnylbkueBNJGYI1dv0eZTFykxPlFsf9ytNTWvXEasp0cZrhAbjp4R6/ZODnTs4g06cOkG7b9wje6HhLPZY6gcLm4utPqLweSUQTi6TfXytJXNjAiuXLFsZoTFJ3CFq6F8m7X5ZtkmClQ0uuJFCtDfrP1ldL0wia4/CKdrd+9TSnKKMJvU+3fiij/pk9O0v+GvN6PapYspW+bxcnMlJzaXDrOZC5xdnala8cL0SgYNhcR2yEQ75syte+SkMVuaVzY2i45du019p/0tfCpaYD55eXuKdV18EpszJFpctdVV8fH2IjfnNP8Mjvf1ko30A5tFWrBP+cL5lS2i87xfSjZRMK/wPVTBNWivF/y6ea+4Zly7ljqliyprBtT7pxch6DRaVimnrBnAs8AzMT2e9tkhv+i0f4Cylf1IDj5LCcdnUNzmoRS7og3Fru5M8bu+oKSLK0gfbzAbM0NK9H1KPLeI4nZ8Ko6FY8ZtfpcS/OZQcthVZa+nixQwzP3IKHqoiXoUzOWlrBmYunE3+bF2MmvzPgo3iY7ky5WWeGdJFni751DWDPj536VVe47RX5v3s2lxTCk1kF9zPLTAIkEtiwNzxlmTPKe9BrCPNYqZa3aKa8a1aynEwjdj7CivJsERzwDPAs8Ez0aL9tnFxMbRvQjLYe2sCio7Kn785j6ku7acku+tp5Sw7ZQSsp5012dR4pFRFPNPIUo4Nk35RQak6Cjh8CSKXVaZks7PppR7hmPhmMm355Lu9GSKW9uU4v57m1Iibyk/ejpIAcOYygW9SckNRfWPjozmCm/wMaikWKFgpJjsdD0oLQR+7naQsmbAkDxmAA5evTV/8JwxFazaawA3gsOUNaKTN401Cp3eeF9rwDPAswDqs1HRPjucV3I2uH9akm5spbhVNSkl4gJrKRdJH3WQb5LmHUmJJX0im4D6BNKdnyE0kZRo43dIS0rUXYpd24WS7+6E5CJ95AHSx51XvjWgT7zJfxxEyQFrKHZlHdL571K+eXJeGgGzj1s7S+ZGPk8PcndL0zICwoxbvR6+NahGhZLUv00DKpzbYBKphLD2kxHhMcZaD9T4Hs3risXUHAvUaCzwCalOY/C/Vduo3f9m039+F5SS50MQXzPMk7YTfxfbeTzdRUayivYaQHEfb3GtnRq+SpWLpJmAIDCdxLk09BSk2Q/PAM8CzwTPRov22Xmw5pjfK+3+ZXV0t/dRwu4BBiECwZIBEAzQROK3vEV6Xdr9V9EnRLJW0o/32SS0lQxJYbNL94Did3QjXYCxO+BxeSkEzLRNe2jorEXU4rtfReKWKVWKFjRqdf1u3lHWDIzo2IwWf9SfvurSinLmcFVKiU7fCqCocENlcjDxOWgJZxMiUROublO9Ao3r2U4sWFfBPv6aBD84S12cHMX6ysOnaPn+E+R/O5BGLVxPNT+bRJtOPntBs/ygH7UcM12YJ0GhEfTblv2ie0OpYmmJhrgG7fXCV4VrndSvIw1v21gpNYCQvzUcuHxDWSPxDPAs8EzwbLRonx2eaZUi5hMgsxr6xIcsXIZyBTfkWGUG/cMrlHDof8pWGgkHJpA+1uDwzhTJkZSw52O+gca+xMfhhRcw64+fo/nbDlJKUjIFsWnSdcJsUVm1+JYrSfEJhggSGMcV2NTXYo5P/1qrrPGNtLejHs3q0AddWoqlNFc4pK6D+Jh4+mHNNrGeHtjnmr/BWZo/fx7qpCSKnbh+h8b8vY4SYuPFNhLZdFyBdSamiK25FhRC3y3eQMlKdAzn8+uG3XTixh3qVKuSyGwGuAZrrnfXuau0es9xZYuoUKG8qfevd8t6IjStgryZjJ4JvsezU4mLTzCbx5QVSTzJ2uBjmIsAmozu2t+sdRwWzl8sOv+drBGtYtMnzfmeKVISKOHUXGXj8Xmhw9RI+R8yawklatR3cOCqP93i1relps+Pq4sznbx1LzWjdt7WA1SyUD4RijbFPziUOk2aS/cV+x8VwZdNnSn9O1Pt0kXFUrPkK7Rs/0lKUUKt527cpcshodS+RkWxbcogPs/Nh04rW9yI8PLLW10pis+9z9Q/2VxKuwZXd1ca2KI+DWxaRyl5NuQWWcdRdP3+A74uQ2VAtGf/1Vv0M1/7/J2HRGdGgOs9wdpW59pVxLYpP67bSRM0iXZOri70x3u9RfYt7l/TiqXpekgYBUREiWcSEx1Hx/j5VC9eyMhsVIE21+v7OcoWm215vemdVg2oVqkiSknWJmH7IBYU15StxyAlknQ3VlLS+TmUdG4W6a7/xdpQiPLlY5B0n/QRd8m5KmtVT8AzFzAJ3PIe5Rdy/6UbdJxb5ptcWZP4ZTWNPGSGs7fv0YFLN+kwC45LAfcpilvWvJ4e5MMvInpAH79xO7VCgGSuBKgkq1m7qV+2uKg4yMnYy+cUGBKu7EW09cR5Ikd7Cop4KI556uZd2n3hGn0ybyU91Dh7Xd1caM67vY3MJ2Sv2rFWc+7efZEOD24EBAshE4kcl4ex4tpxH9Ax8Mxlf7EPyOHhRt/1eU30b3pzxkIKCEx7UewdHahmuRI06Y2OYvtqYDAdvHyTDl25SefvBPFxY8QQBjnSMdnSA72+D/F9PMDH9OPrDWBB7Mj3wNvd0Ou5eaUytOiAH8XHGbQpkMhCNCQmlgawwNt94bro7gDusqm05dwVSmYhhOu9zfcW5zl/5xH6d9dRsQ9wdc9Bb7fyZS2oslJioEaJwrSYzUL1/t3nc1kH/xObZPDJRPIzgfa07cwlI2EFyrHZ+71yjwC6X7ySO2vmwyQ/uMTCgTUvrtTmsPNqRI5lh5CdS3HSR/kppRZg84ZS+N3Up3WtMMXOuQQ5FOlDDvlbUkrofqX0UezsPcmxRCeyc7Um0meeZ5bJey8skmZs3kdruVX3YmGC7vyIBHgqggXbb7WsT+9xqwOhYA1zdxwSLytsbeSgRHPFdXR0FNpIBL+AnRrUpCGt6gtH4kfzVpjtLIcU9UkDu1BHfrnD+fdwXt7jltNU67EEtJf5H75JdcuYTwJDuvu2U5dSox4ZAeEytG1DGtLSl8Ys20TrDp82Ohdk+G4d/R6tZ+H36397KZorOq45OjqGXFkLENfO/1WNtQD4J14taV0LjnySOXw/0RcL/aNi+bgww9xZW0pi8zK/tye906Ieda1bTQjywb8uIp1S8QE6af7MGheEyK+b9lrd2RG/61SvOo3v1U4pMQbm4aAZ/1CSkgSZEfCFFfDxpiUf9ae8Xh7CrPvkz9V0nYXvQH63Pu/cQtkz65B0czslHvnOomPXpfG/5FS+q1gXUaOQNDPQCPQqsaI2O5T6kHK0mCrW4w+MI93578S6KXYer5JLoynkWKShUpJ5nokGs4E1hQGouFzR0fLFc4VBpzSQwC8OFnRmu8gt9UJusaoWK5RufgS0D7TsqBShbAYlsPmAY0JLgYqOdRAYFU1/bj1IVdlc+a5Xe/K7G0ThsXFCg0klRU+HWcPp37Quebg6U9c61cifj4kWGce1hCdXuCIF8tCcYX0e6aSnRQy9wA/+KFfK3HlyUZziRzElX/48QhMYy+fZr3Et0TfqT67wCbFp5wBh+PvQPjRx9VbayCZBSHCYuG84T4SzsY7jw2yBA3b9iXOUwPekHmtp6fHLxj004d/NQiuAXwXHwH2EeYfoEI4LoeXHlRSaDcatcWChdvZOYOq9hNaym4XTpDdfpxL5fWgfa2aerMVpNR0t8E+hLgxr34Q+f91ypS+U24uaVy1Hp/jZpTjYW7x/AD2pm/D9nvNuT/JmQb3s4EkaOmMxhfF1IWZ9gbXb0mz2luLzy0qkPLhAyXe2WNRgcrRZqqzxvnHhlHJvk7Jlgh2SRTOWMI6l3iTHgrXFup0TN/ZX/hDrptg55CaHwk3Jwfvx/Vg2FzArDp+iMYvWC8dgehUWQOggRX7VwVNUm80AcyneaJF6/jSfQrilxL7pAcGFF+vYzTuUg1t2qMxJXPlO3QoQPaEBWtBxvV9L7UCHjF6k7JctlJdCuXLd44rqyiaHA5fn4EqhS0mmMsUK07utfWlinw7CFMsIaBHtWUOKSUgQvh+YOUiiQ1q7HVea3FyJ0Bt76lvdhO8GZsTIBau41U7TEOBAHfdGJ5q0dgedZXMqo2sHuEZEVYKj46iZBWcnxr5ZwRURfaa0PZbNAWERFBFF61h7QkRo69mrLHjSQtLoGhHCAuD9to2od6NX+V7p6WZYBCXzM3Bm7QrJeI6sYeDztdpVaFL/TkZRNEvA1O3N2mgufg4B3GjADHRnAWLv4ECuGFeGhWjdymVoZKfm9F6bhmyG6+hDvn/L9p1I9akBCMHtZ69Ql3rVuDFxUUqfLWGs2Zmar/poFtT39vALaz7r2M69Cjn4VKCUh7zfzc2UEmYhhG0HzT9jAWPvXpHsfSqzycXC5dYOFm5rlG+MsXMpwsLodbL3fHw/lk1NJNjw/aYsEBEclXrcGg1nE6BgLk/ROsERey3oAY1iIaQdTChXbk/aMmYYeWr8GgC5F7e4JdUy4/2+3Crl4ePloodcCQLDI2nV0TO0dPthZQ+Dnf8Tm0LQKDCswCdsMmGkuiHtGtOHvKQHfCU4LoZjgNB70iEfcX6h/KIhkS4/fEUmQqrx2OlCO1HBuQ9p3YDO3A6k3QhNax7Z1290EOn2xXxyi2E9cWxoN8gSVoG2hUrfv4mh1VL5e88xmslmlrYHOaI3XetUpYKsQebkSnjrQRgdZU1R2/MZwyP4ssD6tENT6jzuNy7Ri3OsAL9H3w5ULG9uw44KD6JiKDjqofDFwEFrXfauZeJYaNwJDad4/vRgAVMibx5xL8Hu89doBJtEcfy8tD3ZgcEcq8bmWHul5NnTcPQ0cnZyoAXD+qbep5TI2xS3tg3p4w0dXc1h59WA9LF3WMsx7hphhJ0bPwrrTFNyKsqCqwTpI1iwWcDOuTjl6L6f7D0KKiWZx6YCpsuP80QfFVVbGNiuEX1hQR1O4sr+xrR/6OwVg7MTvoZW1crRmG5txDZAzsWSAyeNKt+eSSMon4VxctH/BSnqKujCv+vb4WI9kFtidPFHy5jVOOV/l+bvOkLbjp4TFadxjQrUoWYFGrtkk5FvY8uEj6ioj7eyZYzp8AXojLnv+xGpQ1SGshbQeNQUI+E/fmBn6l6vurJlDBqCNlw5VDCcxNddWwuTc+q6XfRFl5bPvWPmd2zmrTzgx5qfsaZsZ2/PWqgrNzCdqXnl5zda4PvcqO09c1n4ruAr+mlQF2qrRBVjltQn/cM0x3dmsctRiVU0Nh+dDMJbnxjMlcq4W0ZmgVBz77VX2Xo8bCZgjnOr994fy1Odm8i6RGJURrw6crKRM7ZgwbysxRjU2Sv+94R/QWXeJwPIl02p9IDTFklhwCevN43q2oraWQgVZzUesBBA+LUfmxtt/zeb7txNs9GtufZxK7fQkm2HxDpa7xysDWKQcXCftZaH0TGpOS3IjEXyWnogWvX21L+ULaLKZYvRv58OEmZTAdZInycYquG18bMecQZDs6rF5/njm68LE+t58fvWA/T75n2puUwAz6Rv09rc6LakxAtLKenE96SPO6d8m0kccpNbDz82Zwz+wJQINqNX1kWISmxnFjuP2uRccyQ5le+mlDweNku0QzjXXWPnDm5RX1lLnx/4RVCBlA8MDKHLyCHhRStcGtesmGEFA9/36SAeJHjIre0ONo+yC/A9wKyBthHEGoTK+52bW3XtY1n7q6X4XhCJggmq3ksMDKUKF/BWc34ZMwD/if9WucKmanDkw+cuXADG7pk0oLMYGiMV1v4+Z80Kw2daEi5Im8A1RFjh07IWmIToAKolgt890z5aeCZL9hwXmn5owXZkl6sCn3PmfUN2nr7kVGN8qnAB9rmKk1O10Xy4jIcdeQT7nGTvVe6JhQuwmYC5GHCfQvglVtF2y0fGZadJf1CFod8KM0ZLOTOJbeYo5mPsAMbQBzVGTKIhs5eJ3tEqxdjUqlTcMNJ8Qkw8nbiejg2bRbkaFEKeHmnJZaY+jJ/X7zJ77cBoXwvKKkLt+b3ShAQybFuMm0mNxkyjQ4rJqqI9Xg5uQK4ow4dmBaCZdq5fQzjOSxYrROvGvmd2QHH4qX5cu4Oaf/cr1fhoIrX+biY1/voXqv7pD/TWb0vE2ECZZcn+E0JbrjR8PDUfO42X6VRx2DghPDC0xEftm7BJ1FUMrKUFGs2l63eo7bhZdLrAUDZ1MikQEOnJX59caj6aEOdS6wOyf6Udm02Z6y5h51aWXBp/r2w9GTYTMAEsXNRxUcqUKGykzSBx7arSqxY+Eq20L6B5gY3CySaYOhI3njgvUuj3+V2kUyY9dhH2VgnXjFqXXUDrijwhFVON4WrQA4vXbk0CowNXSC232dy4dy+EHoSE07fL/1NKDWj/G90rwp5iy/80wIwCs4e/QRu/GkJlCuZTStOYt+MwNR/1Cy3ee5y14wekT04RlRx+G3weOn2ZxizZSN1/XmC235opGIqiyTczaPa2g8IUh78RZhoWaNwQHhAwDUZNodjEJNo4ZpgYl1nVqlWgzbzz1z66V3MO2fu0F1pJRkA7cSw3nFybTVZKHgX5Lo6lBoqcloywc61A9vk6Uo7XVrAS83T6cNlMwLhrIi3anrBAO9o7+p9oM2CjNHkT9o6WTw9RGC0VNOO0mkZ5biljugLMp5PdcHJ0NJqcDeq2ltweaeo/IklaTPc1h+lwEu6aVtZUkGuPh3vpZCKcsgKNKpRS1oxBSF6Mv8OanHZgclPgN8RgX91++EM4yy2x6shpGvb7UjEDxf10ZqFAUAJpAOP5/9ccO0vrvxxC3RvWSO2rpuLK9cC7SGVy67qeHMv04RtcgDWaymIhBy+RgQtBAcFil7MOOTeaRq4Nv1F+bRnXxuPJuc634jfit+6s5fGxoP3YuVUVC7QcxyofkFvnNWweGQ8C9iTYzMn7+cJ1dIAlehi3hmDt2GFUtlBai4JetDvPXRFqrTbxCWn/Pf9n6FOC3A9LGZwYUBr9X1RgGqD1LuDtSdVMJt9qyi2M+gJUKlOMVowYJNazCxfv3qeBMxdRlCKoP+/VjgY1M/aZQEUvXSAvVSxSwEi4D/1jOe05kX6va0RZLswaq2wRxbBmcgHdDqJjqDprn1rzCa3x5GUGrQaj+c0Z2itbTHY2ZcMuWnbgZGrvd1CnShmR/4T+SndDI8W7t+X4OaMMZQdnR1ptRhvae+Eavc8mqXZfzKDQqloFql26CDnYO4jBtdC9RNXWgRvv89nrLYTphgTUz/9cLcLpeAb/fDbokcxr3d0DlBJ6ifRxYWhxWcAUJId81URezOOQHHKekoPPiNwbVt9YeOUh+zzlyfGVjDWmx8FmAgYJdjM3708def+T7q1F+ntGwJ8wd6MhNo/QKp8iOfNDRiurTZkvyhVpy9cZd8Tawvb0x78vE+sIfSPV/ePXmojt7AT8A2oEom7VsvTnsPQH1AZ3WHNrP35maiVA3ygXRTVP5LIUHZyOhse/YMRAqlcm/YxfMHDWYjpyxpCv4cTHOjP1K7GelTl67Ra9+9tSI61l8jvdRfcQU3DP3pu7nK4rvdphylQrVZT+ZrNLC/xTMCFVMjWDAguT7RM+EnlgyAEbPm+FCIJ0q1dN2ePFwWaZvEj8mrZuh7BxweEL12l4h6Zi3RLIYP3m77QhEPLlzUMLP+pP3evXoB6+NQ0dBdkEQHZmZFQ0xbGN2yCDaErHb2cqayy9WZaO7tFGdG7MbgQ/jKabD8JFx78A1sasufY3pv9NodwyA/T5+rRLSxauzcT9LPNKPjpx615ql40DXAnfal5PrFsCPaA37D8p1tFbuWPtytSkYtYfDmEEv1NBoeGp7+LInm0t5j9h4PC+rF0sZG0HmefI/o3m9y0kKoaXaBG8+GPHIboR+CD13mEGhd8G97CYgAkfYLROR6fZ7AK583hRLD9HmHLIS0LXEHNTsbwI2EzAYO4fpNdfZvtT7Y8yc8NuiklOpoblS4ptFeQwfLl4A01bmTaGSB4fb/q6WyuqW7a4mDAdS+kCPrTyoF9q4p7f1Vt08PptqsVqZS534zCkGBR6Utp4FlDnO9SpIjSY7EglfgHnbz9kdO2bzlwW8wgVMUm2w+yKfacsoAeK7wlqedUSRWhs9zap9xI9tU/6B3CLzRWPhVUsa0dzth8k75zuVLmoceYm8l/enbOcdh1PG2oxkSvML293F9m+WRmE+Cev3Joakm/LWkJG+T5AO2NEip0d+V3xFw7d3eeu0uVbganCBd0+1o56N8MZFPDObzp7RXStQH8qDEUxpFUD5dsXF5tm8gK8mHuR3q4Blb1q8cIs2QvS8Rtsp7Jk1yYgeXrnpNdrV6FRXVsrJWmgB/Ws//YZZbRCjUUoGi0FEsjOsC2NKIiWoq/kF5EFrbM0u4FI2WiTmRNBxdJFhR8hODLa7LVjfqCVI99hQWQc2ke4tuP3cx6Z1haO96osgPLx7zCkxgWl5VWBcxLDSeAZZXXgpP1y0frUCeF+GdrLqP/TxpPnaaPfBdHdYFjrBkbRTqRSpPpP0BXBTFVxcXelUz9/qWwZeqXDkQswFg7GtlH5fvU2+nvLAbHuxoL835FvUUnNRHMvIjbv7NimWnk6FxhCOrb/HyoZulA9b7PteezSTaHua8PRED5Inx7b3fwE5jVZW0Gv4/MYZ4VVVwA1FoloUEExx476PwDHy8ctPGxoz+eYyfk0gJPcm7WRg9yaItdDHeMG+UanWRCYXjteYjePHGIgJ62DXQXRu4aspm8+e5mcXVxSW2UcA8fCMbW5TACO9y+6tqIebGZlB45c9aedrOmpY9R8ySaytqMjhhDZefSc0AjrsJah7XqB3tcXMpj2xIWP9S4LJhUIrAXcAF5k87M4C2qt0xYR0q2Kwx0dXRtXLPmI9vmiYfMYI0ylP97tJQYTgnML452YA5OgQxP5sH1j+q6n+bFBVD5o15jGcwvqnSeXGFoS6eCm5MuXWxyv/asV6T/WXLJCtunToJdvTZo9rA8VKZBX3DNzYwHjHmPUu0YVS9G6LwanG+WB7b9p1FBqyPvieDBNTUE5HOTFihSg34b2zlbTsWKgd63ekZxsrIVcCUhLFAw20eQSNf20LGN8PO2MEaYzKCQKp3oa6AX+ovNMxoMBiFB0b1hTaBHx/NBj2YbH7fXyykm1yhUXY4z8PKhrumOraEHY8O0W9cS4H3jED/l4Oj4uhlQoX7wQtalRgcb2bMtqalUxXu6LBHp0v9HoVSpZwEf4AKJYk0tKSRataTHWVNrVrEgYWGlA07pGKr8l4JzEEBW+3ILjXsGBHM9aIsZ8gfbXoEJJMTznNz3aWuxcmVVBUifGsFHHCKrE71c5jTaHCfbvs7ndnN8X9CLX5mRN3bBbjIMjUHprm4L7P7RN2oBM6A6gY+3Sy9ODtZdXqI5mNkp01L2gCB28pxDU1gz3kZ2xuQ9GInmeIKP8tQm/pfr4ujerY9VwDcjT6jbBMC0LtERhxpupKtbMma2i9elAMJ2dPvqFa/xMyXppmBLJU6Rwbi8qoBm4bMWuo1ZNlfLT+rTJx9zY1K5dqRT1Z00FS+UyxYQJCtAdBnkuGYHpXlThgvF52tSu/MILFyAFjOSF55PXmpCHxhSBZoLQuyU++2et6JOk4s5m09/D+9FXXVqKZe6w3kbdK5BEZ9ppVwuSPWduSRsALCExkQY0ebYzQjwvpIkkeSn4YtF62nLivFE6BIaeQO9wBADQPeJeeCStPHzaKLUfgYJfh/R8pH8T+iFNXLGVYh+mOYbRDeV11kwwewEmo8PxTvnfo3X7Tyh7GBzmfRvXFqMBvgxIASN5aRj8+1IxtUu40j8uIzC0wtc921nM+p25ZZ9IfjQ3W4U5IFx8K5Sk6YOefJyV7IIUMJKXim+Wb6bNfudJp0sx0j605PTKSYm6JDH4WdsMBiVfeuAEjVu0kXx8chkN5aolV24vMQ3MoJa+2bIf3JMgBYzkpQPzOv25+xjtPX2Jcnq4icHIkeGdmKSjHK7O1NO3Jr3VrI5RyDo9kBH95+6jtJrNKxwL4yijWuEzMTGJ2tWqQv2b1KJKRR5/8OzsihQwkpcWOGoxWiAG9HJ0sKdC3p5iNoUnAYOjB0c8pBTSi46MGELjZUYKGIlEYjNkmFoikdgMKWAkEonNkAJGIpHYDClgJBKJzZBOXgtcvnyZDh40nmTcwcGBPDw8qECBAlS3bl2xreXGjRu0Z88eatiwIZUpk7n5bTBPtk6nIxeX9Hs/45xwbt26dSNPT0/av38/Xb16lXr06CHO7Wlh7flYy6lTp8jPz49at25NhQtbHj5iwYIF5ObmRr169VJKbIO15yN5QiBgJI+ycOFCCF6LS6VKlfRbt25V9jawZs0a8d28+fOUEus4d+6cvn79+np+4ZUSy4wYMUL8B34DPvzwQ7F96dIlsf00yMz5WMvPP/8szpMFsFJiHuyDxdZYez6SJ0OaSBkwcOBA2r59u1i2bNlCS5YsEdrD+fPnRevHlVHZk6hEiRLEAoDKlS2nlFjH0qVL6dAhwxzSGQHtCP/h7W27cVkycz4SSXpIAZMBrKlQixYtxAKB0rt3b1q2bBl98cUX4ntsx8UZxsitWrUq/fTTT9SggfnBnFmgK2uZQ/u7zp07i/8oVMj8zHuP+x+ZxZr/eVbnAp72+dhq35cNKWAeA/hefvjhB2IzQmgyx44dE+V79+6lxo0b07p168Q2OH78OHXo0IHc3d3J3t5efD979mzh4wCfffYZTZkyRaz369ePBgzon7o+cuRImjlzpvCt+Pr6Cv/LjBkzxDHg79GC82jfvr34j3LlytGYMWNSBR9gc078DpqYFvhzUA7fB7B0PuDKlSvUt29fyp8/v/ifli1b0n//GU8tC9hco08//VT4qrAvriM62ngy+KfB0z4fPJP58+eL54Xj4Z6vXr1a3JOePXsqexmw5r/VZ7Vr1y4qVqyYWOYvmK98+5LA0ldiBtUH8+OPPyolj/Lbb7+JfebNM/hcTH0w/v7+YhtLr1699B988IE+X758YnvcuHFiH34JhT8HZV26dNGzYBDl6n7a5fTp0xZ9MFjKli2rZ81KX6tWLbENP4pOpxP7LV68WJSx+SO2VdgUEuXjx48X25bOR90PC47/ySefpJ4jC0GxDwgKCkot79//Tf3777+f+jssT8sHY4vzmTx5sigrWrSonoWKvlGjRqn74Rgq1v636X9h4cZF+fblQAoYC1gjYNavXy/2QaUHpgKGtQLDtiKAQGBgoCjDS8wtpigbPXq0KNM6VdUXlltbfVJSkv7u3bui3JKAgTDhVlmUYf8ePXqI8pUrV4oyawUMMD0fCKnq1auLMm7RRRkICQlJPc+AgABR1qdPn0f+5+zZs6IMy9MQMLY4H1wrtiEwoqKiRBmej3q/VQGTmf9WBQyeDY4ZHh6mj4mJEd+9LEgT6QlQw9ShoeYnPvfxMcy5zZoO7dixg2JjY4WaDvX81q1bQrXOCNZ6yNHRMcNQKmtEwgwD2P+rrwxTum7atEl8PgkIgyOsyxoSderUSSk1XN/w4cPFOsLl/D7R2rVriYUnde/eXZSDypUr09ChGU/zay22OJ+jR4+Kz2+++YZy5swp1vF8vv76a7GuYu1/a4GJhWPmyuUtQvAvE1LAPAEQEqBkSeOZKlWaNWsmHMPww8BGhwDAi86aDiUmmp/U3xRLzlxTKlQwHrekVCnDCGxsVonPJ0G9TvgdUFFwHeoydqxh0vxr164Ra2dCiNauXfuRHCFu9ZW1J8cW53PypGFK3NKljafCRbSONRNly/r/1gLfy8uKFDBPgBqitvQC4aVjM0o4Ct9++23RerHJIpyncMgikS09sL9pxbCEk5Px/EjQYoBpOVp1LdYIOlbrxSc0AVb7jRY4TLFAwLFpJvYzp5k9zZbbFudjrRPa2v/WgoTIlxUpYB4Tf39/EeEB0FTMwXY5nThxgtq2bUtz586lyMhIEQlCiwiTCar20wKttRa1pa1YsaL4VAVVQoJhfiAVdb/0UAUoWuzJkycbLcjJgcBs3rw5FSlimMXQnNaE+/W0sMX5lC9fXnwiqqYFzyw4OG1yNmv/W2JACpjHAGFPhCgBbHn1RTYFvheEOpGcB6BVILSNnBqgag+qlhEXZ93YruaYM2eOkXYyffp08an+l5eXYSClnTt3iE+A/1+4cKFY1/7W9Hzgb0CLj1A4BKYKNASEdKtVqybMQGgKXbp0EeaDNhweFRUlwvpPC1ucT8eOHcXnhAkTxPcA98R0P2v/W6LAN1FiBjWKxKqwvl27dmJBNIBfLlGOBWFMbuGUXzwaRQoNDU3d9+OPPxblLJDENo7DFVzsx8JAlCE6gQgOQEQC+5hiKYqEZeDAgfpFixaJT/V4apgaEQx1v8GDB4vomDYMq4bNgbnz+euvv0QZzmnq1Kn6+fPn61u3bp16PJXr16+n3iP8B36nhr2xWBtFUu+56YJ7DGxxPkgjQBmeOe6rpTC1tf/NZpMoYwGnlLx8SAFjAUt9kfCi4WXCS2UaclTD1tq+SNu2bRMVQ3sMbN+5c0fZwxC65pYx9XuEmy0JGLbxxT6qgEEOBrbxn+rvsSA8GxYWJvZR2blzZ2ooFQsq2r59+8T6xIkTlb3Mnw9YtWqV0e+xQJhBkGo5fPiwnjWn1H3wPwiDYx3/lx7qbywtrKkpez7980FYGnksaEjwHQQM+pupv9FizX+rAgZC7mVF9qZ+RnBlFz4Z2PCuro8OJo3HEBERIeaXdsvxeA5RZKLCt4BQOBzM5sD/BAQECDMIWaiWSO98cB34rmDBgun24Eb4HqYDzseWPI3zgS8K2dE1atSgXLnSZoJ88OAB5c2bV0QD0RfNFGv/+6UFAkYiedmBdofqAM1PNSvxqZq0kyZNEmWSzCE1GImEQb5MnTp1hPOWTVMRGUQfIpRDe1m9ZvVja5YvM1LASCQKCEnv3r2btm3bJj7r1atHvg18qVfPXhZNTkl6EP0fsWzlkHJZbp8AAAAASUVORK5CYII=;" parent="1" vertex="1">
          <mxGeometry x="1132.2" y="613.44" width="182.61" height="60" as="geometry" />
        </mxCell>
        <mxCell id="AGsdD-O0MfIiKE4bmK7N-74" value="" style="endArrow=none;html=1;rounded=0;fontFamily=Verdana;fontSize=12;fontColor=default;exitX=0.5;exitY=0;exitDx=0;exitDy=0;" parent="1" source="6a7d8f32e03d9370-60" target="6a7d8f32e03d9370-61" edge="1">
          <mxGeometry width="50" height="50" relative="1" as="geometry">
            <mxPoint x="1000" y="643" as="sourcePoint" />
            <mxPoint x="1120" y="546" as="targetPoint" />
          </mxGeometry>
        </mxCell>
        <mxCell id="AGsdD-O0MfIiKE4bmK7N-77" value="Public DID" style="text;html=1;strokeColor=none;fillColor=none;align=center;verticalAlign=middle;whiteSpace=wrap;rounded=0;fontSize=12;fontFamily=Verdana;fontColor=default;" parent="1" vertex="1">
          <mxGeometry x="1130" y="500" width="60" height="30" as="geometry" />
        </mxCell>
        <mxCell id="AGsdD-O0MfIiKE4bmK7N-78" value="Schemas Credentials" style="text;html=1;strokeColor=none;fillColor=none;align=center;verticalAlign=middle;whiteSpace=wrap;rounded=0;fontSize=12;fontFamily=Verdana;fontColor=default;" parent="1" vertex="1">
          <mxGeometry x="1250" y="500" width="60" height="30" as="geometry" />
        </mxCell>
        <mxCell id="4pu8WYODDaZBOu8qvZJw-1" value="" style="aspect=fixed;perimeter=ellipsePerimeter;html=1;align=center;shadow=0;dashed=0;fontColor=#4277BB;labelBackgroundColor=#ffffff;fontSize=12;spacingTop=3;image;image=img/lib/ibm/applications/service_broker.svg;" vertex="1" parent="1">
          <mxGeometry x="458" y="400" width="70" height="70" as="geometry" />
        </mxCell>
      </root>
    </mxGraphModel>
  </diagram>
</mxfile>
